<svg width="2788" height="676" viewBox="0 0 2788 676" fill="none" xmlns="http://www.w3.org/2000/svg">
<rect x="10" y="10" width="2768" height="656" rx="226" fill="black" stroke="#A6A6A6" stroke-width="20"/>
<path d="M2557.02 436.223C2508.97 436.223 2479.82 405.021 2479.82 354.777V354.631C2479.82 304.68 2509.26 272.746 2555.26 272.746C2601.26 272.746 2630.11 303.947 2630.11 351.408V364.592H2522.01C2522.45 389.641 2536.07 404.289 2557.9 404.289C2575.47 404.289 2586.17 394.621 2589.24 385.832L2589.54 384.953H2628.79L2628.36 386.564C2623.52 409.709 2601.84 436.223 2557.02 436.223ZM2555.99 304.68C2538.41 304.68 2525.23 316.398 2522.45 337.639H2589.1C2586.46 315.959 2573.72 304.68 2555.99 304.68Z" fill="white"/>
<path d="M2393.83 436.223C2345.93 436.223 2316.34 405.021 2316.34 354.338V354.191C2316.34 303.947 2346.37 272.746 2393.39 272.746C2436.02 272.746 2463.12 298.967 2464.73 332.951V333.977H2425.04L2424.74 332.658C2422.11 317.717 2411.71 306.291 2393.98 306.291C2373.03 306.291 2359.85 324.309 2359.85 354.338V354.484C2359.85 385.246 2373.03 402.678 2394.13 402.678C2411.27 402.678 2421.96 392.131 2424.89 376.311L2425.04 374.992H2464.88V375.871C2462.83 410.148 2435.73 436.223 2393.83 436.223Z" fill="white"/>
<path d="M2218.05 433V275.969H2260.83V303.361H2261.71C2266.39 284.025 2279.14 272.746 2297.45 272.746C2302.13 272.746 2306.53 273.479 2309.75 274.357V312.004C2306.24 310.539 2300.38 309.66 2294.22 309.66C2273.13 309.66 2260.83 322.258 2260.83 345.109V433H2218.05Z" fill="white"/>
<path d="M2098.67 436.223C2064.1 436.223 2044.47 414.104 2044.47 377.336V275.969H2087.24V368.4C2087.24 388.908 2096.91 400.773 2116.1 400.773C2135.29 400.773 2147.45 386.711 2147.45 366.203V275.969H2190.22V433H2147.45V407.072H2146.57C2138.51 425.09 2122.4 436.223 2098.67 436.223Z" fill="white"/>
<path d="M1945.3 436.223C1897.54 436.223 1867.52 405.607 1867.52 354.484V354.191C1867.52 303.654 1898.28 272.746 1945.15 272.746C1992.17 272.746 2023.08 303.361 2023.08 354.191V354.484C2023.08 405.754 1992.76 436.223 1945.3 436.223ZM1945.45 402.678C1966.25 402.678 1979.58 385.1 1979.58 354.484V354.191C1979.58 323.869 1965.95 306.291 1945.15 306.291C1924.5 306.291 1911.02 323.869 1911.02 354.191V354.484C1911.02 385.246 1924.35 402.678 1945.45 402.678Z" fill="white"/>
<path d="M1764.54 436.662C1714.29 436.662 1681.92 413.664 1679.43 374.699L1679.28 372.355H1721.03L1721.32 373.967C1724.11 390.373 1741.54 400.627 1765.71 400.627C1790.17 400.627 1805.55 389.934 1805.55 373.82V373.674C1805.55 359.318 1795.15 352.141 1768.93 346.721L1746.67 342.326C1704.92 333.977 1683.82 314.055 1683.82 282.268V282.121C1683.82 243.449 1717.52 217.961 1764.39 217.961C1813.32 217.961 1843.35 242.424 1845.4 279.484L1845.54 282.268H1803.79L1803.65 280.51C1801.45 263.957 1786.22 253.85 1764.39 253.85C1741.69 253.996 1728.06 264.396 1728.06 279.484V279.631C1728.06 292.961 1738.9 300.725 1763.22 305.559L1785.63 310.1C1829.87 318.889 1849.79 336.906 1849.79 370.158V370.305C1849.79 410.881 1817.86 436.662 1764.54 436.662Z" fill="white"/>
<path d="M1639.44 436.223C1604.58 436.223 1588.17 422.746 1588.17 389.055V308.195H1566.34V275.969H1588.17V237.59H1631.38V275.969H1660.09V308.195H1631.38V384.367C1631.38 399.016 1637.97 403.996 1650.87 403.996C1654.67 403.996 1657.46 403.557 1660.09 403.264V434.611C1655.26 435.344 1648.38 436.223 1639.44 436.223Z" fill="white"/>
<path d="M1505.41 433V221.623H1548.18V433H1505.41Z" fill="white"/>
<path d="M1286.85 433L1360.68 221.623H1412.68L1486.36 433H1439.93L1423.96 381.73H1349.25L1333.29 433H1286.85ZM1386.17 262.639L1359.51 348.625H1413.71L1387.05 262.639H1386.17Z" fill="white"/>
<path d="M1116.64 436.223C1077.09 436.223 1052.77 405.461 1052.77 354.484V354.338C1052.77 303.215 1077.09 272.746 1116.64 272.746C1138.9 272.746 1156.48 284.172 1164.98 303.215H1165.86V221.623H1208.63V433H1165.86V406.193H1164.98C1156.63 424.797 1139.34 436.223 1116.64 436.223ZM1130.99 400.773C1151.79 400.773 1166 382.902 1166 354.484V354.338C1166 326.066 1151.65 308.195 1130.99 308.195C1109.75 308.195 1096.28 325.627 1096.28 354.338V354.484C1096.28 383.049 1109.61 400.773 1130.99 400.773Z" fill="white"/>
<path d="M937.926 436.223C898.375 436.223 874.059 405.461 874.059 354.484V354.338C874.059 303.215 898.375 272.746 937.926 272.746C960.191 272.746 977.77 284.172 986.266 303.215H987.145V221.623H1029.92V433H987.145V406.193H986.266C977.916 424.797 960.631 436.223 937.926 436.223ZM952.281 400.773C973.082 400.773 987.291 382.902 987.291 354.484V354.338C987.291 326.066 972.936 308.195 952.281 308.195C931.041 308.195 917.564 325.627 917.564 354.338V354.484C917.564 383.049 930.895 400.773 952.281 400.773Z" fill="white"/>
<path d="M668.102 433L741.93 221.623H793.932L867.613 433H821.178L805.211 381.73H730.504L714.537 433H668.102ZM767.418 262.639L740.758 348.625H794.957L768.297 262.639H767.418Z" fill="white"/>
<path d="M399.844 541H274.156V505.708H399.844V541ZM170.775 433.299C172.634 455.194 179.838 472.261 191.988 484.225C203.784 496.022 221.018 503.334 242.733 505.217V540.649C209.844 538.656 183.811 528 165.905 510.092C147.654 492.035 137.316 466.07 135.351 433.299H170.775ZM538.816 433.299C536.814 466.07 526.302 492.035 508.051 510.092C490.339 527.806 464.321 538.62 431.267 540.645V505.208C453.137 503.288 470.385 495.842 482.187 484.225C494.337 472.261 501.541 455.194 503.4 433.299H538.816ZM337 214.442C344.682 214.442 352.247 216.327 359.032 219.931C365.818 223.535 371.616 228.751 375.918 235.117C376.826 236.531 377.755 237.93 378.693 239.322L307.507 310.656C299.577 318.595 294.739 329.109 294.864 340.631C294.989 352.071 299.976 362.327 307.616 370.014L307.778 370.176L307.945 370.338C315.621 377.747 325.771 382.488 336.982 382.596C348.292 382.705 358.737 378.078 366.756 370.281L366.87 370.171L366.98 370.062L437.86 299.192C439.968 300.65 442.099 302.079 444.26 303.466C450.626 307.769 455.841 313.568 459.445 320.354C463.048 327.14 464.933 334.706 464.933 342.389C464.933 350.072 463.048 357.638 459.445 364.424C455.841 371.21 450.626 377.009 444.26 381.311C416.838 398.924 393.529 422.235 375.918 449.66C371.616 456.027 365.818 461.243 359.032 464.847C352.247 468.451 344.682 470.336 337 470.336C329.317 470.336 321.753 468.451 314.968 464.847C308.182 461.243 302.384 456.027 298.082 449.66C280.471 422.235 257.162 398.924 229.74 381.311C223.374 377.009 218.159 371.21 214.555 364.424C210.952 357.638 209.067 350.072 209.067 342.389C209.067 334.706 210.952 327.14 214.555 320.354C218.159 313.568 223.374 307.769 229.74 303.466C257.162 285.854 280.471 262.543 298.082 235.117C302.384 228.751 308.182 223.535 314.968 219.931C321.753 216.327 329.317 214.442 337 214.442ZM170.289 401.873H135V276.171H170.289V401.873ZM516.556 137C529.622 137 539 147.077 539 159.447V352.793C539 364.698 531.555 372.692 521.044 372.692C510.069 372.692 503.089 363.072 503.089 352.793V298.618L504.632 197.269L471.965 232.241L351.111 353.064C342.739 361.205 331.578 360.83 323.533 353.064C315.398 344.88 315.116 333.67 323.393 325.392L444.251 204.292L478.672 172.424L372.911 172.915H323.533C313.255 172.915 303.334 165.421 303.333 154.958C303.333 144.261 311.164 137 323.533 137H516.556ZM242.733 172.792C220.97 174.716 203.599 182.163 191.988 193.775C179.83 205.747 172.624 222.828 170.771 244.745H135.355C137.348 211.953 147.842 185.973 165.905 167.908C183.616 150.196 209.807 139.378 242.733 137.351V172.792Z" fill="url(#paint0_linear_120_77)"/>
<path d="M399.844 541H274.156V505.708H399.844V541ZM170.775 433.299C172.634 455.194 179.838 472.261 191.988 484.225C203.784 496.022 221.018 503.334 242.733 505.217V540.649C209.844 538.656 183.811 528 165.905 510.092C147.654 492.035 137.316 466.07 135.351 433.299H170.775ZM538.816 433.299C536.814 466.07 526.302 492.035 508.051 510.092C490.339 527.806 464.321 538.62 431.267 540.645V505.208C453.137 503.288 470.385 495.842 482.187 484.225C494.337 472.261 501.541 455.194 503.4 433.299H538.816ZM337 214.442C344.682 214.442 352.247 216.327 359.032 219.931C365.818 223.535 371.616 228.751 375.918 235.117C376.826 236.531 377.755 237.93 378.693 239.322L307.507 310.656C299.577 318.595 294.739 329.109 294.864 340.631C294.989 352.071 299.976 362.327 307.616 370.014L307.778 370.176L307.945 370.338C315.621 377.747 325.771 382.488 336.982 382.596C348.292 382.705 358.737 378.078 366.756 370.281L366.87 370.171L366.98 370.062L437.86 299.192C439.968 300.65 442.099 302.079 444.26 303.466C450.626 307.769 455.841 313.568 459.445 320.354C463.048 327.14 464.933 334.706 464.933 342.389C464.933 350.072 463.048 357.638 459.445 364.424C455.841 371.21 450.626 377.009 444.26 381.311C416.838 398.924 393.529 422.235 375.918 449.66C371.616 456.027 365.818 461.243 359.032 464.847C352.247 468.451 344.682 470.336 337 470.336C329.317 470.336 321.753 468.451 314.968 464.847C308.182 461.243 302.384 456.027 298.082 449.66C280.471 422.235 257.162 398.924 229.74 381.311C223.374 377.009 218.159 371.21 214.555 364.424C210.952 357.638 209.067 350.072 209.067 342.389C209.067 334.706 210.952 327.14 214.555 320.354C218.159 313.568 223.374 307.769 229.74 303.466C257.162 285.854 280.471 262.543 298.082 235.117C302.384 228.751 308.182 223.535 314.968 219.931C321.753 216.327 329.317 214.442 337 214.442ZM170.289 401.873H135V276.171H170.289V401.873ZM516.556 137C529.622 137 539 147.077 539 159.447V352.793C539 364.698 531.555 372.692 521.044 372.692C510.069 372.692 503.089 363.072 503.089 352.793V298.618L504.632 197.269L471.965 232.241L351.111 353.064C342.739 361.205 331.578 360.83 323.533 353.064C315.398 344.88 315.116 333.67 323.393 325.392L444.251 204.292L478.672 172.424L372.911 172.915H323.533C313.255 172.915 303.334 165.421 303.333 154.958C303.333 144.261 311.164 137 323.533 137H516.556ZM242.733 172.792C220.97 174.716 203.599 182.163 191.988 193.775C179.83 205.747 172.624 222.828 170.771 244.745H135.355C137.348 211.953 147.842 185.973 165.905 167.908C183.616 150.196 209.807 139.378 242.733 137.351V172.792Z" fill="white"/>
<defs>
<linearGradient id="paint0_linear_120_77" x1="337" y1="137" x2="337" y2="541" gradientUnits="userSpaceOnUse">
<stop stop-color="#56B2FF"/>
<stop offset="1" stop-color="#008CFF"/>
</linearGradient>
</defs>
</svg>
