<svg width="2756" height="858" viewBox="0 0 2756 858" fill="none" xmlns="http://www.w3.org/2000/svg">
<rect x="10" y="10" width="2736" height="838" rx="143" fill="black" stroke="#A6A6A6" stroke-width="20"/>
<path d="M2492.52 515.93C2448.72 515.93 2422.36 485.314 2422.36 437.414V437.268C2422.36 390.1 2449.31 357.727 2490.91 357.727C2532.51 357.727 2557.85 388.635 2557.85 434.338V443.713H2448.14C2448.72 475.061 2466.01 493.371 2493.11 493.371C2512.44 493.371 2526.07 483.703 2530.46 470.666L2530.9 469.348H2555.95L2555.66 470.812C2550.68 496.008 2525.77 515.93 2492.52 515.93ZM2490.76 380.285C2468.64 380.285 2451.36 395.373 2448.58 423.791H2531.93C2529.44 394.201 2513.03 380.285 2490.76 380.285Z" fill="white"/>
<path d="M2342.67 515.93C2299.46 515.93 2272.06 485.168 2272.06 436.682V436.535C2272.06 388.488 2300.04 357.727 2342.38 357.727C2380.31 357.727 2402.73 382.922 2405.95 408.996L2406.1 410.168H2381.19L2380.9 408.996C2377.09 393.762 2364.79 380.285 2342.38 380.285C2315.86 380.285 2298.14 402.258 2298.14 436.828V436.975C2298.14 472.424 2316.3 493.371 2342.67 493.371C2363.47 493.371 2376.8 481.652 2381.05 464.66L2381.34 463.488H2406.39L2406.24 464.514C2402.14 493.518 2377.09 515.93 2342.67 515.93Z" fill="white"/>
<path d="M2194.28 513V360.656H2219.77V386.438H2220.35C2225.48 368.859 2238.66 357.727 2255.8 357.727C2260.2 357.727 2264.01 358.459 2266.06 358.752V383.508C2264.01 382.775 2258.59 382.043 2252.43 382.043C2232.66 382.043 2219.77 395.812 2219.77 418.957V513H2194.28Z" fill="white"/>
<path d="M2088.08 515.93C2054.68 515.93 2035.34 494.25 2035.34 459.533V360.656H2060.83V454.992C2060.83 479.748 2072.4 493.371 2095.84 493.371C2119.87 493.371 2135.54 476.232 2135.54 450.305V360.656H2161.03V513H2135.54V491.32H2134.95C2126.75 505.529 2111.22 515.93 2088.08 515.93Z" fill="white"/>
<path d="M1939.84 515.93C1897.5 515.93 1869.23 485.314 1869.23 436.828V436.535C1869.23 388.049 1897.65 357.727 1939.69 357.727C1981.73 357.727 2010.29 387.902 2010.29 436.535V436.828C2010.29 485.461 1981.88 515.93 1939.84 515.93ZM1939.98 493.371C1966.79 493.371 1984.22 472.57 1984.22 436.828V436.535C1984.22 400.793 1966.64 380.285 1939.69 380.285C1913.18 380.285 1895.3 400.939 1895.3 436.535V436.828C1895.3 472.717 1913.03 493.371 1939.98 493.371Z" fill="white"/>
<path d="M1771.67 516.516C1725.97 516.516 1695.06 494.104 1692.42 457.922L1692.28 455.871H1718.64L1718.94 457.922C1722.01 479.162 1742.52 492.199 1773.14 492.199C1803.61 492.199 1822.79 478.43 1822.79 456.604V456.457C1822.79 437.854 1810.64 427.453 1781.63 421.008L1758.2 415.881C1716.89 406.799 1697.55 388.195 1697.55 357.287V357.141C1697.7 322.424 1728.46 298.107 1771.96 298.107C1813.27 298.107 1843.45 321.984 1845.79 356.555L1845.94 358.752H1819.57L1819.28 356.701C1816.06 335.168 1798.04 322.424 1771.23 322.424C1742.96 322.57 1724.5 336.047 1724.5 356.408V356.555C1724.5 373.84 1737.25 384.68 1764.79 390.686L1788.22 395.812C1831.58 405.334 1849.75 422.912 1849.75 455.139V455.285C1849.75 492.785 1820.01 516.516 1771.67 516.516Z" fill="white"/>
<path d="M1657.56 515.93C1629.58 515.93 1615.81 503.332 1615.81 474.182V381.75H1593.55V360.656H1615.81V319.494H1642.18V360.656H1671.18V381.75H1642.18V474.035C1642.18 490.295 1649.36 494.836 1662.98 494.836C1666.06 494.836 1668.99 494.396 1671.18 494.25V514.904C1667.96 515.344 1662.54 515.93 1657.56 515.93Z" fill="white"/>
<path d="M1548.14 513V301.623H1573.62V513H1548.14Z" fill="white"/>
<path d="M1343.21 513L1421.87 301.623H1447.94L1526.46 513H1498.77L1477.38 452.502H1392.28L1370.89 513H1343.21ZM1434.61 333.264L1400.33 430.09H1469.47L1435.2 333.264H1434.61Z" fill="white"/>
<path d="M1185.73 515.93C1146.77 515.93 1120.99 484.875 1120.99 436.828V436.682C1120.99 388.635 1147.06 357.727 1185.29 357.727C1206.83 357.727 1224.55 368.566 1234.07 386.145H1234.66V301.623H1260.15V513H1234.66V487.219H1234.07C1224.55 504.943 1207.56 515.93 1185.73 515.93ZM1190.71 493.371C1216.5 493.371 1234.81 470.959 1234.81 436.828V436.682C1234.81 402.697 1216.35 380.285 1190.71 380.285C1163.76 380.285 1147.06 401.965 1147.06 436.682V436.828C1147.06 471.838 1163.76 493.371 1190.71 493.371Z" fill="white"/>
<path d="M1019.62 515.93C980.656 515.93 954.875 484.875 954.875 436.828V436.682C954.875 388.635 980.949 357.727 1019.18 357.727C1040.71 357.727 1058.44 368.566 1067.96 386.145H1068.55V301.623H1094.04V513H1068.55V487.219H1067.96C1058.44 504.943 1041.45 515.93 1019.62 515.93ZM1024.6 493.371C1050.38 493.371 1068.69 470.959 1068.69 436.828V436.682C1068.69 402.697 1050.24 380.285 1024.6 380.285C997.648 380.285 980.949 401.965 980.949 436.682V436.828C980.949 471.838 997.648 493.371 1024.6 493.371Z" fill="white"/>
<path d="M761.662 513L840.324 301.623H866.398L944.914 513H917.229L895.842 452.502H810.734L789.348 513H761.662ZM853.068 333.264L818.791 430.09H887.932L853.654 333.264H853.068Z" fill="white"/>
<path d="M460.844 631H335.156V595.708H460.844V631ZM231.775 523.299C233.634 545.194 240.838 562.261 252.988 574.225C264.784 586.022 282.018 593.334 303.733 595.217V630.649C270.844 628.656 244.811 618 226.905 600.092C208.654 582.035 198.316 556.07 196.351 523.299H231.775ZM599.816 523.299C597.814 556.07 587.302 582.035 569.051 600.092C551.339 617.806 525.321 628.62 492.267 630.645V595.208C514.137 593.288 531.385 585.842 543.187 574.225C555.337 562.261 562.541 545.194 564.4 523.299H599.816ZM398 304.442C405.682 304.442 413.247 306.327 420.032 309.931C426.818 313.535 432.616 318.751 436.918 325.117C437.826 326.531 438.755 327.93 439.693 329.322L368.507 400.656C360.577 408.595 355.739 419.109 355.864 430.631C355.989 442.071 360.976 452.327 368.616 460.014L368.778 460.176L368.945 460.338C376.621 467.747 386.771 472.488 397.982 472.596C409.292 472.705 419.737 468.078 427.756 460.281L427.87 460.171L427.98 460.062L498.86 389.192C500.968 390.65 503.099 392.079 505.26 393.466C511.626 397.769 516.841 403.568 520.445 410.354C524.048 417.14 525.933 424.706 525.933 432.389C525.933 440.072 524.048 447.638 520.445 454.424C516.841 461.21 511.626 467.009 505.26 471.311C477.838 488.924 454.529 512.235 436.918 539.66C432.616 546.027 426.818 551.243 420.032 554.847C413.247 558.451 405.682 560.336 398 560.336C390.317 560.336 382.753 558.451 375.968 554.847C369.182 551.243 363.384 546.027 359.082 539.66C341.471 512.235 318.162 488.924 290.74 471.311C284.374 467.009 279.159 461.21 275.555 454.424C271.952 447.638 270.067 440.072 270.067 432.389C270.067 424.706 271.952 417.14 275.555 410.354C279.159 403.568 284.374 397.769 290.74 393.466C318.162 375.854 341.471 352.543 359.082 325.117C363.384 318.751 369.182 313.535 375.968 309.931C382.753 306.327 390.317 304.442 398 304.442ZM231.289 491.873H196V366.171H231.289V491.873ZM577.556 227C590.622 227 600 237.077 600 249.447V442.793C600 454.698 592.555 462.692 582.044 462.692C571.069 462.692 564.089 453.072 564.089 442.793V388.618L565.632 287.269L532.965 322.241L412.111 443.064C403.739 451.205 392.578 450.83 384.533 443.064C376.398 434.88 376.116 423.67 384.393 415.392L505.251 294.292L539.672 262.424L433.911 262.915H384.533C374.255 262.915 364.334 255.421 364.333 244.958C364.333 234.261 372.164 227 384.533 227H577.556ZM303.733 262.792C281.97 264.716 264.599 272.163 252.988 283.775C240.83 295.747 233.624 312.828 231.771 334.745H196.355C198.348 301.953 208.842 275.973 226.905 257.908C244.616 240.196 270.807 229.378 303.733 227.351V262.792Z" fill="white"/>
</svg>
