<svg width="2756" height="858" viewBox="0 0 2756 858" fill="none" xmlns="http://www.w3.org/2000/svg">
<rect x="10" y="10" width="2736" height="838" rx="143" fill="black" stroke="#A6A6A6" stroke-width="20"/>
<path d="M2445.06 515.93C2414.74 515.93 2394.38 497.619 2394.38 469.934V469.641C2394.38 443.713 2414.59 427.453 2449.6 425.402L2493.25 422.912V410.168C2493.25 391.564 2481.1 380.285 2459.86 380.285C2440.23 380.285 2427.92 389.66 2424.99 403.283L2424.7 404.602H2400.09L2400.24 402.99C2402.43 377.941 2424.26 357.727 2460.15 357.727C2496.18 357.727 2518.74 377.209 2518.74 407.678V513H2493.25V488.244H2492.67C2483.73 504.943 2465.42 515.93 2445.06 515.93ZM2420.45 469.934C2420.45 484.582 2432.46 493.811 2450.77 493.811C2474.8 493.811 2493.25 477.258 2493.25 455.139V442.688L2452.53 445.178C2432.17 446.35 2420.45 455.432 2420.45 469.641V469.934Z" fill="white"/>
<path d="M2235.59 564.27V360.656H2261.08V386.438H2261.66C2271.18 368.713 2288.18 357.727 2310 357.727C2348.97 357.727 2374.75 388.781 2374.75 436.828V436.975C2374.75 485.021 2348.67 515.93 2310.44 515.93C2288.91 515.93 2271.18 505.09 2261.66 487.512H2261.08V564.27H2235.59ZM2305.02 493.371C2331.97 493.371 2348.67 471.691 2348.67 436.975V436.828C2348.67 401.818 2331.97 380.285 2305.02 380.285C2279.24 380.285 2260.93 402.697 2260.93 436.828V436.975C2260.93 470.959 2279.39 493.371 2305.02 493.371Z" fill="white"/>
<path d="M2188.13 334.875C2179.34 334.875 2172.16 327.697 2172.16 318.908C2172.16 309.973 2179.34 302.941 2188.13 302.941C2197.06 302.941 2204.09 309.973 2204.09 318.908C2204.09 327.697 2197.06 334.875 2188.13 334.875ZM2175.38 513V360.656H2200.87V513H2175.38Z" fill="white"/>
<path d="M2124.99 515.051C2115.62 515.051 2108.29 507.727 2108.29 498.352C2108.29 488.977 2115.62 481.652 2124.99 481.652C2134.37 481.652 2141.69 488.977 2141.69 498.352C2141.69 507.727 2134.37 515.051 2124.99 515.051Z" fill="white"/>
<path d="M1938.96 515.93C1899.99 515.93 1874.21 484.875 1874.21 436.828V436.682C1874.21 388.635 1900.29 357.727 1938.52 357.727C1960.05 357.727 1977.78 368.566 1987.3 386.145H1987.88V301.623H2013.37V513H1987.88V487.219H1987.3C1977.78 504.943 1960.78 515.93 1938.96 515.93ZM1943.94 493.371C1969.72 493.371 1988.03 470.959 1988.03 436.828V436.682C1988.03 402.697 1969.57 380.285 1943.94 380.285C1916.98 380.285 1900.29 401.965 1900.29 436.682V436.828C1900.29 471.838 1916.98 493.371 1943.94 493.371Z" fill="white"/>
<path d="M1775.63 515.93C1745.3 515.93 1724.94 497.619 1724.94 469.934V469.641C1724.94 443.713 1745.16 427.453 1780.17 425.402L1823.82 422.912V410.168C1823.82 391.564 1811.66 380.285 1790.42 380.285C1770.79 380.285 1758.49 389.66 1755.56 403.283L1755.27 404.602H1730.66L1730.8 402.99C1733 377.941 1754.83 357.727 1790.71 357.727C1826.75 357.727 1849.31 377.209 1849.31 407.678V513H1823.82V488.244H1823.23C1814.3 504.943 1795.99 515.93 1775.63 515.93ZM1751.02 469.934C1751.02 484.582 1763.03 493.811 1781.34 493.811C1805.36 493.811 1823.82 477.258 1823.82 455.139V442.688L1783.1 445.178C1762.74 446.35 1751.02 455.432 1751.02 469.641V469.934Z" fill="white"/>
<path d="M1634.86 515.93C1592.52 515.93 1564.25 485.314 1564.25 436.828V436.535C1564.25 388.049 1592.67 357.727 1634.71 357.727C1676.75 357.727 1705.31 387.902 1705.31 436.535V436.828C1705.31 485.461 1676.9 515.93 1634.86 515.93ZM1635 493.371C1661.81 493.371 1679.24 472.57 1679.24 436.828V436.535C1679.24 400.793 1661.66 380.285 1634.71 380.285C1608.2 380.285 1590.32 400.939 1590.32 436.535V436.828C1590.32 472.717 1608.05 493.371 1635 493.371Z" fill="white"/>
<path d="M1511.81 513V301.623H1537.3V513H1511.81Z" fill="white"/>
<path d="M1352.29 513V360.656H1377.78V382.336H1378.36C1386.56 368.127 1402.09 357.727 1425.24 357.727C1458.63 357.727 1477.97 379.406 1477.97 414.123V513H1452.48V418.664C1452.48 393.908 1440.91 380.285 1417.47 380.285C1393.45 380.285 1377.78 397.424 1377.78 423.352V513H1352.29Z" fill="white"/>
<path d="M1167.72 513L1125.09 360.656H1150.43L1180.9 484.582H1181.49L1215.91 360.656H1240.52L1275.09 484.582H1275.68L1306.14 360.656H1331.34L1288.86 513H1262.93L1228.51 395.08H1227.92L1193.64 513H1167.72Z" fill="white"/>
<path d="M1041.3 515.93C998.967 515.93 970.695 485.314 970.695 436.828V436.535C970.695 388.049 999.113 357.727 1041.15 357.727C1083.2 357.727 1111.76 387.902 1111.76 436.535V436.828C1111.76 485.461 1083.34 515.93 1041.3 515.93ZM1041.45 493.371C1068.25 493.371 1085.69 472.57 1085.69 436.828V436.535C1085.69 400.793 1068.11 380.285 1041.15 380.285C1014.64 380.285 996.77 400.939 996.77 436.535V436.828C996.77 472.717 1014.49 493.371 1041.45 493.371Z" fill="white"/>
<path d="M778.508 513V301.623H849.553C912.102 301.623 949.309 340.588 949.309 406.945V407.238C949.309 473.889 912.395 513 849.553 513H778.508ZM804.875 489.27H847.795C895.695 489.27 922.355 459.973 922.355 407.531V407.238C922.355 354.504 895.695 325.354 847.795 325.354H804.875V489.27Z" fill="white"/>
<path d="M309.89 631H486.921C537.69 631 566 602.655 566 552.013V406.513C566 355.683 537.69 327.527 486.921 327.527H309.89C259.121 327.527 231 355.683 231 406.513V552.013C231 602.655 259.121 631 309.89 631ZM398.595 227C406.71 227 413.504 233.614 413.504 241.55V433.723L412.372 462.067L422.941 450.919L452.195 419.74C454.837 416.717 458.611 415.205 462.386 415.205C470.124 415.205 476.163 420.685 476.163 428.432C476.163 432.589 474.465 435.613 471.634 438.447L409.352 498.537C405.577 502.316 402.369 503.45 398.595 503.45C394.631 503.45 391.423 502.316 387.648 498.537L325.366 438.447C322.535 435.613 320.837 432.589 320.837 428.432C320.837 420.685 326.498 415.205 334.425 415.205C338.2 415.205 342.164 416.717 344.806 419.74L374.059 450.919L384.628 462.067L383.496 433.723V241.55C383.496 233.614 390.479 227 398.595 227Z" fill="url(#paint0_linear_120_77)"/>
<defs>
<linearGradient id="paint0_linear_120_77" x1="398.5" y1="227" x2="398.5" y2="631" gradientUnits="userSpaceOnUse">
<stop stop-color="#56B2FF"/>
<stop offset="1" stop-color="#008CFF"/>
</linearGradient>
</defs>
</svg>
